<svg xmlns="http://www.w3.org/2000/svg" width="670" height="513" viewBox="0 0 670 513"><defs><style>.a{fill:#222632;}.b,.g{fill:#478a58;}.b{font-size:16px;font-family:Nunito-Regular, Nunito;}.c{fill:#ff0;}.d{fill:#fff;}.e{fill:#898989;}.f{fill:#ffb300;}</style></defs><g transform="translate(-114.25 -228)"><rect class="a" width="670" height="513" rx="42" transform="translate(114.25 228)"/><text class="b" transform="translate(137 363)"><tspan x="0" y="0">/** Access</tspan><tspan x="0" y="22" xml:space="preserve">     * - access all described above data objects. Manipulate such objects and update their</tspan><tspan x="0" y="44" xml:space="preserve">     * positions in arrays.</tspan><tspan x="0" y="66" xml:space="preserve">     */</tspan><tspan class="c"><tspan x="0" y="88">findUser</tspan><tspan class="d" y="88">(</tspan><tspan class="e" y="88">id:</tspan><tspan class="d" y="88"> </tspan><tspan class="f" y="88">string</tspan><tspan class="d" y="88">) {</tspan></tspan><tspan class="d"><tspan x="0" y="110" xml:space="preserve">    </tspan><tspan class="f" y="110">if </tspan><tspan y="110">(!id) </tspan><tspan class="f" y="110">return</tspan><tspan y="110">;</tspan><tspan x="0" y="132" xml:space="preserve">    </tspan><tspan class="f" y="132">let </tspan><tspan y="132">dat;</tspan><tspan x="0" y="154" xml:space="preserve">    </tspan><tspan class="f" y="154">try </tspan><tspan y="154">{</tspan><tspan x="0" y="176" xml:space="preserve">        dat = fs.</tspan><tspan class="c" y="176">readFileSync</tspan><tspan y="176">(</tspan><tspan class="g" y="176">&apos;./usr/&apos;</tspan><tspan y="176" xml:space="preserve"> + id + </tspan><tspan class="g" y="176">&apos;.json&apos;</tspan><tspan y="176">,</tspan><tspan class="g" y="176" xml:space="preserve"> &apos;UTF-8&apos;</tspan><tspan y="176">)</tspan><tspan class="f" y="176">;</tspan><tspan x="0" y="198" xml:space="preserve">    } </tspan><tspan class="f" y="198">catch </tspan><tspan y="198">(e) {</tspan><tspan class="f" y="198" xml:space="preserve"> return;</tspan><tspan y="198" xml:space="preserve"> }</tspan><tspan x="0" y="220" xml:space="preserve">    </tspan><tspan class="f" y="220">if </tspan><tspan y="220">(!dat) return;</tspan><tspan x="0" y="242" xml:space="preserve">    </tspan><tspan class="f" y="242">if </tspan><tspan y="242">(!isUserObjData(JSON.parse(dat))) </tspan><tspan class="f" y="242">return;</tspan><tspan x="0" y="264" xml:space="preserve">    return deserializeUser(dat)</tspan><tspan class="f" y="264">;</tspan><tspan x="0" y="286">}</tspan><tspan x="0" y="308"></tspan></tspan><tspan class="f"><tspan x="0" y="330">private </tspan><tspan class="c" y="330">parseUrl</tspan><tspan class="d" y="330">(</tspan><tspan class="e" y="330">url:</tspan><tspan class="d" y="330" xml:space="preserve"> string): </tspan><tspan y="330">object </tspan><tspan class="d" y="330">{</tspan></tspan></text><circle class="g" cx="8" cy="8" r="8" transform="translate(741 254)"/><path class="f" d="M8,0A8,8,0,1,1,0,8,8,8,0,0,1,8,0Z" transform="translate(705 254)"/><path class="c" d="M8,0A8,8,0,1,1,0,8,8,8,0,0,1,8,0Z" transform="translate(669 254)"/></g></svg>