<svg xmlns="http://www.w3.org/2000/svg" width="425" height="425" viewBox="0 0 425 425"><defs><style>.a{isolation:isolate;}.b{fill:#efefef;}.c{fill:#9b9b9b;}.d{fill:#009f9f;}</style></defs><g class="a" transform="translate(-703.235 -217.805)"><g transform="translate(703.235 217.805)"><path class="b" d="M391.27,425H33.73A33.4,33.4,0,0,1,0,391.27V33.73A33.4,33.4,0,0,1,33.73,0H391.27A33.4,33.4,0,0,1,425,33.73V391.27A33.4,33.4,0,0,1,391.27,425"/></g><g transform="translate(782.372 341.129)"><path class="c" d="M299.177,191.858c-4.629-7.936-6.613-19.839-6.613-37.033V41.08c0-3.307.661-5.952.661-7.936a14.784,14.784,0,0,1,1.984-6.613c1.984-4.629,8.6-6.613,18.517-6.613,9.258,0,15.21,2.645,17.855,6.613a14.784,14.784,0,0,1,1.984,6.613c.661,1.984.661,4.629.661,8.6V151.518c0,5.29.661,9.258,1.323,10.581,1.323,1.323,3.306,1.984,6.613,1.984s5.29.661,6.613.661a5.716,5.716,0,0,1,3.968,1.984c3.307,2.645,4.629,7.936,4.629,17.194,0,9.92-1.323,16.533-4.629,18.517-4.629,2.645-13.887,3.307-29.759,1.323Q305.128,201.778,299.177,191.858Zm-30.42-91.26C258.176,84.727,242.3,77.452,220.481,77.452c-19.178,0-35.711,5.952-48.275,17.855-13.226,11.9-19.178,27.775-19.178,48.275a68.249,68.249,0,0,0,15.21,42.985A52.608,52.608,0,0,0,189.4,202.439a78.915,78.915,0,0,0,31.081,5.952c33.727,0,50.921-7.274,50.921-21.162,0-3.307-1.323-6.613-3.307-11.242-3.968-7.274-7.936-10.581-13.226-10.581a18.083,18.083,0,0,0-9.258,2.645l-2.645.661a70.231,70.231,0,0,1-22.484,3.307,29.249,29.249,0,0,1-15.871-4.629c-5.29-3.307-7.936-6.613-7.936-11.242h56.872c5.952,0,11.242-2.645,15.871-7.274s7.274-11.9,7.274-21.823A46.15,46.15,0,0,0,268.756,100.6ZM57.139,90.678a38.155,38.155,0,0,1,6.613-5.29c5.29-3.968,11.242-5.952,18.517-7.274,15.871,0,29.1,6.613,39.678,18.517s15.871,27.114,15.871,44.307V182.6c0,3.307-.661,5.952-.661,7.936a10.667,10.667,0,0,1-1.984,5.952c-1.984,4.629-8.6,6.613-18.517,6.613-11.9,0-17.855-2.645-19.839-8.6a49.261,49.261,0,0,1-1.323-11.9V140.938c0-6.613-1.323-11.242-5.29-15.21a23.58,23.58,0,0,0-15.21-5.29A20.375,20.375,0,0,0,53.832,141.6v42.324c0,3.307-.661,5.952-.661,7.936a10.667,10.667,0,0,1-1.984,5.952c-1.984,4.629-8.6,6.613-18.517,6.613s-16.533-2.645-18.517-6.613A14.784,14.784,0,0,1,12.17,191.2c-.661-1.323-.661-3.968-.661-7.936V99.275c0-3.307.661-5.952.661-7.936a10.666,10.666,0,0,1,1.984-5.952c2.645-3.968,8.6-5.952,18.517-5.952s15.871,1.984,17.855,5.952c1.984,2.645,2.645,5.952,2.645,9.92C53.171,94.646,55.155,92.662,57.139,90.678ZM204.61,121.1c-5.29,3.968-7.936,8.6-7.936,13.226h29.759c5.952,0,9.258-2.645,9.258-7.936a10.663,10.663,0,0,0-3.968-8.6c-2.645-1.984-6.613-3.307-11.9-3.307S209.9,117.131,204.61,121.1Z" transform="translate(-11.509 -19.919)"/></g><g transform="translate(775.524 532.747)"><path class="d" d="M190.563,93.007c-3.957,0-7.914,1.319-13.19,3.957-4.617,2.638-7.914,4.617-9.893,6.6a17.485,17.485,0,0,0-3.3,3.957,12.674,12.674,0,0,0-2.638-7.914c-2.638-3.957-8.574-5.276-17.807-5.276-9.893,0-16.488,1.979-18.467,6.6a10.638,10.638,0,0,0-1.979,5.936c0,1.979-.66,4.617-.66,7.914v45.507h41.55V149.066c0-3.957,1.979-7.914,5.276-11.212a18.092,18.092,0,0,1,11.871-4.617c3.957,0,7.914.66,10.552,1.979a17.56,17.56,0,0,0,7.914,1.979c5.936,0,9.893-3.3,13.191-9.233a34.884,34.884,0,0,0,4.617-16.488c0-5.276-1.319-8.574-3.3-11.212a17.075,17.075,0,0,0-7.255-4.617c-3.3-.66-5.936-1.319-8.574-1.979-1.319,0-3.957-.659-7.914-.659m96.291-1.319c-17.148,0-32.317,5.936-45.507,18.467s-19.786,27.7-19.786,46.826v3.3h42.21v-3.3c0-7.914,2.638-13.191,7.255-17.148a24.073,24.073,0,0,1,31.657,0c4.617,3.957,7.255,9.893,7.255,17.148v3.957h20.445a31.11,31.11,0,0,0,21.1-7.914c-.66-17.148-7.255-31-19.786-42.21C319.17,97.623,304,91.687,286.853,91.687M53.382,51.456c-9.893,0-16.488,1.979-18.467,5.936a10.638,10.638,0,0,0-1.979,5.936c0,1.979-.66,4.617-.66,7.914v24.4l-7.914-.659a13.047,13.047,0,0,0-9.233,3.3,12.3,12.3,0,0,0-3.3,6.6,64.759,64.759,0,0,0-1.319,13.85c0,6.6,1.319,11.212,3.3,13.85a10.635,10.635,0,0,0,8.574,3.957,49.921,49.921,0,0,0,9.893-.659v24.4h41.55v-24.4l15.169.66c3.957,0,6.6,0,7.914-.66a14.745,14.745,0,0,0,6.6-1.979c3.957-1.979,6.6-8.574,6.6-18.467s-1.979-16.488-5.936-18.467a14.744,14.744,0,0,0-6.6-1.979c-1.979,0-4.617-.66-7.914-.66s-8.574,0-15.829.66V71.9A44.959,44.959,0,0,0,72.508,60.03c-1.979-5.276-7.914-8.574-19.126-8.574" transform="translate(-10.513 -51.456)"/></g></g></svg>