<svg xmlns="http://www.w3.org/2000/svg" width="222.944" height="437" viewBox="0 0 222.944 437"><defs><style>.a{fill:#e93a3a;}.b{fill:#fff;}</style></defs><g transform="translate(-460.2 -165)"><path class="a" d="M470.559,166.271,467.518,238.5l-7.032,123.165,5.322,69.946,54.55,11.785,99.976-10.644,35.544,6.462,10.073-21.288,1.711-99.406-3.041-89.333-2.281-45.046-12.924-14.255-40.866-1.711-63.293-1.711-49.8,3.041Z" transform="translate(2.367 10.538)"/><path d="M521.017,169.016c18.247.19,35.733-.76,44.476-1.141,13.685-.76,32.882,3.421,49.038,3.421,15.016.19,43.716-7.793,52.46,4.942,9.313,13.495,7.222,22.809,5.322,41.435-1.9,20.527.57,67.855.57,88.952.191,35.543,0,40.675.38,75.648.38,38.394-2.851,41.815-3.611,72.987-.57,25.089-11.974,32.692-11.974-.95,0-21.1,2.281-42.005,2.851-77.739.191-23.759,1.71-57.781,1.71-71.086,0-32.5-.76-48.468-1.52-64.814-.95-19.957,2.661-30.221.38-41.815-3.8-17.867-26.61-13.3-47.708-14.065-16.536-.38-39.915-3.041-51.509-1.14-12.925,2.091-40.865,1.331-55.5,1.14-13.875-.19-24.329-5.7-29.841,10.454-2.661,7.793-.379,46.947-.379,54.55,0,24.9,0,57.781.191,82.3.189,21.288-1.711,30.031-1.9,50.368-.38,34.973,5.322,41.245,3.992,72.227-1.331,32.122-15.206,38.2-15.206,17.676-.191-39.914-4.562-68.805-2.471-106.249,2.281-43.906,3.421-69.565,3.421-113.851,0-15.586-.19-37.064.38-52.079.38-11.784-.19-22.238,3.421-28.13,0,0,2.851-6.652,23.379-7.033,8.933-.38,20.908,3.8,29.651,3.992Z" transform="translate(0 0)"/><path d="M473.959,196.715c45.617,7.983,121.835-1.331,178.475-1.9,9.5.19,15.586,4.372,15.206,11.214-1.521,28.891,9.123,83.821,13.3,126.016v1.9a10.638,10.638,0,0,1-1.521,5.132,14.739,14.739,0,0,1-5.132,5.132c-4.562,2.851-10.834,4.372-17.676,4.182-78.879-3.231-119.364,3.231-171.633,6.462h-1.52a3.712,3.712,0,0,1-1.521-.19,18.622,18.622,0,0,1-8.363-3.611,14.205,14.205,0,0,1-5.512-10.073c-1.33-16.346-3.231-32.5-4.752-51.7-.38-4.752-.76-9.694-1.14-15.015-.38-5.132-.57-10.644-.951-16.346-.57-11.4-.76-24.139-.76-38.2a38.325,38.325,0,0,1,3.992-17.486,12.652,12.652,0,0,1,3.992-4.752,5.6,5.6,0,0,1,2.471-.95c.38,0,.951-.19,1.331-.19h.76c.57.19.76.19.95.38h0Z" transform="translate(2.2 247.147)"/><path class="b" d="M506.684,316.263h-.76v.19h.76Zm8.743-5.7a.409.409,0,0,0-.38-.38c-.38,0-.76.19-1.14.19a2.814,2.814,0,0,1-1.33.19l-.38.19-1.711-.57-7.222.19c-.191,0-.38.19-.571.19a.7.7,0,0,1-.571.19c.19.19-.57.19-2.09.19a1.139,1.139,0,0,1-.76-.19,12.79,12.79,0,0,1-4.561-.76,50.617,50.617,0,0,1-7.413,1.33c0-.19-.191,0-.571.19l-7.983.19.19-.19-1.33.19c-.19.189-1.71.38-4.371.57a2.644,2.644,0,0,0-2.661,2.851c0,1.141,1.52,2.091,4.562,2.661a84.521,84.521,0,0,1,14.065-.95,15.444,15.444,0,0,0,2.091-.57h.95a11.7,11.7,0,0,0,1.9-.57c.38,0,2.471.38,6.842,1.331l1.521-.38h-.57l3.421-.19-.57-.19,3.612-.19a5.71,5.71,0,0,0,3.421.76,16.326,16.326,0,0,1,3.042.19,7.969,7.969,0,0,1,2.85-.76l-.76-.19,1.33-.189a2.638,2.638,0,0,0,.95-1.9c.38-1.9-.95-3.041-3.8-3.421Zm-24.9.38h-1.141v.189h1.141Zm-8.363-3.041h-.76v.19h.76Zm.95,3.421h-.76v.19h.76Zm-1.14.19h-.76v.19h.76Zm26.99,11.784a5.249,5.249,0,0,0-.76-.951,1.72,1.72,0,0,1-1.9-.57c-2.851.95-4.372,1.33-3.991,1.33a18.766,18.766,0,0,0-4.942.38q-.57-.284-4.562,0l-.57.38-1.521-.571a7.737,7.737,0,0,1-4.182.19l-.38.19a86.022,86.022,0,0,0-10.264,0,4.087,4.087,0,0,0-2.471,1.141,4.025,4.025,0,0,0-1.521,2.281,48.507,48.507,0,0,0,4.372,3.041,12.416,12.416,0,0,0,3.8-.95,7.839,7.839,0,0,1,4.182-.19l.38-.19,1.52.38-.76-.19c4.562.57,7.033.95,7.222.95h.76l.76-.38a3.577,3.577,0,0,0,1.711.76,1.145,1.145,0,0,0,.76-.189l.38-.57a5.272,5.272,0,0,0,1.71.19,21.985,21.985,0,0,0,7.033-1.331c2.851-1.141,4.182-2.281,4.182-3.612a8.438,8.438,0,0,1-.951-1.521ZM519.8,221.988c-1.33-3.991-2.091-6.082-2.091-6.462a48.676,48.676,0,0,0-4.371-5.132l-1.521-.76c-1.331-1.521-2.281-2.471-3.041-3.231a20.783,20.783,0,0,1-2.851-1.52h-1.9c-2.661,0-4.181-.19-4.371-.38l-1.52.19a23.388,23.388,0,0,0-8.173-1.14l-.38-.38c-2.091.57-3.041.76-3.231,0l-6.083.189a48.727,48.727,0,0,0-5.132.95,27.912,27.912,0,0,1-5.512.95h-1.141c0,.19-.38.38-.57.38h-1.33l-.189-.19h-1.141l-.57.19c-2.091-.57-3.232,0-3.232,1.71,0,2.851,1.141,7.983,3.041,15.4a18.552,18.552,0,0,0-.189,3.231,83.6,83.6,0,0,0,1.52,11.974,93.629,93.629,0,0,1,1.331,9.314,24.71,24.71,0,0,1-1.141,6.082,23.648,23.648,0,0,0-1.14,5.892,31.494,31.494,0,0,0,1.521,7.413,43.749,43.749,0,0,1,1.52,7.6,32.539,32.539,0,0,1-2.091,13.495l.95,1.9,1.33.76a15.066,15.066,0,0,1,4.942.19,2.337,2.337,0,0,1,2.09-1.331,13.175,13.175,0,0,1,3.8.57l.76-.191a5.391,5.391,0,0,1,2.471.76,33.874,33.874,0,0,1,4.372.38,28.523,28.523,0,0,0,4.182.38,2.721,2.721,0,0,0,1.9-1.521,5.406,5.406,0,0,0,.76-2.281c-2.091-3.421-3.041-6.082-3.041-7.983,0-1.14,0-2.851.191-5.322a53.762,53.762,0,0,0,.189-5.512,42.778,42.778,0,0,0-1.33-7.983,45.421,45.421,0,0,1-1.33-7.983c0-1.711-.189-5.132-.38-10.264s-.38-8.553-.38-10.263a9.752,9.752,0,0,1,.951-3.8c.57-1.71,1.141-2.471,1.711-2.661a2.443,2.443,0,0,1,1.9.76,3.419,3.419,0,0,1,1.711-.76c1.52,0,3.041,2.661,4.371,7.983a43.606,43.606,0,0,1,1.71,10.264,26.108,26.108,0,0,0,.951,5.322,22.711,22.711,0,0,1,.95,4.942c.189,7.793,0,12.355-.38,13.685a27.224,27.224,0,0,0,2.091,2.851,40.567,40.567,0,0,1,3.611,2.471c.38-.38.76-.38.95,0l4.561-.19c.38-.38,2.851-.57,7.413-.76l.76.19c1.33,0,2.661-1.711,3.991-5.322a201.732,201.732,0,0,1-1.52-23.569c-.57-9.5-1.52-16.916-3.231-21.478h0Zm.38,55.5a53.141,53.141,0,0,0-11.594-2.471l.38-.189c-.38,0-.95-.19-1.33-.19a3.717,3.717,0,0,0-1.521-.189,3.365,3.365,0,0,0-3.231,1.52c-.19.57-.38,1.33-.57,2.091v.76c1.71.76,3.231,1.52,4.942,2.091,1.141,0,2.661,0,4.942.19s3.991.19,4.942.19c2.471,0,3.611-.76,3.611-1.9Zm2.661,8.743-.38-1.521a24.713,24.713,0,0,1-3.231-1.521l-4.562.189-.76-.57h-2.661l-1.14.38-1.331-.19-1.141.38-.95-.19c-1.711,0-2.471.57-2.471,1.9v1.52a13.1,13.1,0,0,1,2.091,2.471h.571c.95,0,1.52,0,1.52-.19a31.277,31.277,0,0,1,4.372.38,28.446,28.446,0,0,0,4.182.38,11.483,11.483,0,0,0,3.611-1.14q2.281-1.14,2.281-2.281h0Zm-2.471,4.752-.95.38-2.471-.57h-1.71c0,.38-.57.57-1.33.57a7.464,7.464,0,0,0-3.421.76c-4.181-.57-6.272.19-6.272,2.091a5.655,5.655,0,0,0,.38,2.661l.57.76,8.172-.189a3.306,3.306,0,0,0,2.281.57c2.281,0,3.991-.38,4.751-.95l1.33-.19a19.217,19.217,0,0,1,3.041-2.471h0c-.191-1.711-1.521-2.851-4.372-3.422h0Zm0,11.594-1.9-.76.379-.19c.38,0-.57-.19-3.041-.38l.571-.19a38.593,38.593,0,0,1-5.513-.19,5.856,5.856,0,0,1-2.471.57q-5.417.285-5.7.57l.38.19-1.331.19c-.57,2.091-.95,2.851-.95,2.281l.191.38-.759.57a17.8,17.8,0,0,0,4.562,1.9c.19-.19,1.33-.19,3.231-.19s3.231.19,3.612.19h4.752l2.661-.19a3.38,3.38,0,0,1,1.521-1.33,1.445,1.445,0,0,0,.95-1.711Zm-29.651-11.024h-.759v.19h.759Zm-3.231,2.281.38-.19-1.9-.19.571-.19-1.331.19c-1.33-.57-5.512-.76-12.545-.38l-.57.19-1.52-.19c-1.521,0-2.281,1.14-2.281,3.041,1.711,1.9,3.042,2.851,3.992,2.661a11.153,11.153,0,0,0,2.471-.38,9.624,9.624,0,0,1,2.471-.38c.76,0,1.521.189,2.281.189a10.826,10.826,0,0,0,2.471.19,12.572,12.572,0,0,1,2.661.19,12.534,12.534,0,0,0,2.661.19c2.091,0,3.231-.95,3.041-2.851h0c.19-.19-.76-1.14-2.851-2.091h0Zm2.851,9.5c-1.331-1.14-2.091-1.711-2.281-1.521l-1.521-.38-2.661.76c-.38-.189-2.471-.38-6.463-.189l-.57.38-1.52-.38-1.521.57-.57-.189a6.763,6.763,0,0,1-1.71.76l-.76,1.521.57,1.711a6.262,6.262,0,0,0,3.8,2.281,7.485,7.485,0,0,1,3.992-1.14,2.408,2.408,0,0,1,1.141.19l-.57.189c5.132,0,8.173.19,8.743.57.191-.19.76-.57,1.71-1.521.76-.76,1.141-1.331,1.141-1.9Zm68.425-27.18a56.188,56.188,0,0,0-1.9-12.164c-1.33-4.942-1.9-7.983-1.9-9.5a91.885,91.885,0,0,1,1.141-11.024c.76-5.322,1.33-8.933,1.141-11.214-.38-11.974-.38-15.966-.38-11.784,0-5.512.759-9.123,1.9-11.024l-.189-4.752c-2.281-2.471-3.611-3.8-4.181-3.8l-.571.189-2.471-1.14-1.521.57-1.331-.19-.76.19a4.732,4.732,0,0,0-1.52-.19,18.091,18.091,0,0,0-5.132,1.14,19.467,19.467,0,0,1-4.752,1.141,5.563,5.563,0,0,1-1.71-.38,5.546,5.546,0,0,0-1.711-.38,3.225,3.225,0,0,0-3.041,1.711c.76.571,1.141,3.041,1.331,7.223,0,1.521,0,3.611-.189,6.653s-.19,5.132-.19,6.652a45.416,45.416,0,0,0,.57,5.892c.38,2.661.38,4.561.57,5.892q0,4.562,1.14,14.826c.76,7.032,1.141,11.784,1.141,14.635a10.857,10.857,0,0,1-.19,2.471,10.812,10.812,0,0,0-.191,2.471,25.732,25.732,0,0,0,.95,5.512,47.665,47.665,0,0,1,.951,5.512l-1.331,9.313q-.284,1.14,1.711,2.281a7.744,7.744,0,0,0,3.422.951,1.139,1.139,0,0,0,.76-.191l.95.38a12.391,12.391,0,0,1,4.561-.38,35.77,35.77,0,0,0,4.562.38c4.182-.19,6.843-.57,7.793-1.33a41.88,41.88,0,0,0,3.991-6.462h0c-2.09-1.711-3.231-5.322-3.421-10.074h0Zm.57,23.759c-7.223-.189-10.264-.189-9.5-.38l-1.141.57a8.56,8.56,0,0,0-3.8,0c-2.281.38-3.611.571-3.8.571l-1.9-.38-1.9,2.281c0,.95,2.091,1.9,6.082,3.231l2.661-.76,2.851.57c.189-.19,2.47-.38,6.842-.95,3.611-.38,5.322-1.521,5.322-3.231h0Zm28.89,10.454c-.38-1.9-1.331-2.851-2.471-2.851a2.71,2.71,0,0,0-1.141.38l-.76-.19-2.281.76h-.76l-1.141.38-.759-.38-1.9.76-.57-.191a11.762,11.762,0,0,1-3.611,1.141c.191,0-2.281-.19-7.6-.571.191-.57-.76-.95-2.661-.76l-1.71.57c-8.363-.76-12.545-1.14-12.925-1.331l-.95.38-.95-.189-.95.38-1.521-.76-.57.38-.57-.38-3.041,1.711-.951-.19-.189,1.9c0,2.281,1.71,3.421,4.751,3.231l.76-.38,3.231.19.57.189c3.612-.189,6.272-.189,8.363.38l1.331-.76c2.661.38,3.991.95,3.8,1.52l-1.331,7.6q0-.285,1.141,4.562a21.214,21.214,0,0,0,4.181,1.711c2.091.57,3.421.95,4.182.76l7.793-1.9.76.38a9.617,9.617,0,0,0,2.471-.38,11.157,11.157,0,0,1,2.471-.38l1.9.38a8.954,8.954,0,0,1,2.851-1.14c.95-1.331,1.331-2.281.95-2.661a9.272,9.272,0,0,0,.19-2.281,8.345,8.345,0,0,0-.38-1.9,5.642,5.642,0,0,1-.38-1.9,13.062,13.062,0,0,1,1.141-3.991h0c-.191-1.521-.571-2.851-.76-4.182h0Zm-32.5,5.322-.76.19-.57-.19-1.14.38a25.627,25.627,0,0,1-10.074-.76l-.95.38h-3.611a2.407,2.407,0,0,1-.191,1.141,2.42,2.42,0,0,0-.189,1.141c0,1.14,2.281,2.281,6.652,3.041,2.661.38,5.512.76,8.173,1.33l2.661-.95.57.19,2.661-2.661c.38-2.091-.76-3.231-3.231-3.231h0Zm-7.983,8.553c-5.892,0-8.933.189-9.123,0l-1.14.57c.759.19,1.33.38,1.33.76a3.811,3.811,0,0,0-.76,1.521q0,3.136,6.843,2.851a29.728,29.728,0,0,0,6.462-1.331c3.421-1.141,5.132-2.091,5.132-3.041.189-.95-2.851-1.331-8.743-1.331Zm112.332-27.18c-1.33-11.784-2.851-19.387-4.562-22.428,0-.19.191-.38,0-.57a53.9,53.9,0,0,0-1.52-7.413c-.95-3.991-1.521-6.462-1.521-6.842,0-.76-.19-1.711-.19-2.471a13.016,13.016,0,0,1-.189-2.281,32.341,32.341,0,0,1,.189-4.372,33.583,33.583,0,0,0,.19-4.372,136.336,136.336,0,0,0-3.041-20.527c-1.9-9.123-3.041-15.966-3.041-20.718a21.356,21.356,0,0,1,.76-6.082c-1.711-1.711-2.851-2.661-3.612-2.661a19.485,19.485,0,0,0-4.562.95,19.152,19.152,0,0,1-4.751.95,8.1,8.1,0,0,1-2.091-.38,9.838,9.838,0,0,0-2.091-.38c-4.942,2.661-8.552,4.182-11.023,4.182l-.571-.19a3.23,3.23,0,0,1-1.33.19,9.976,9.976,0,0,1-4.372-1.33,9.98,9.98,0,0,0-4.371-1.331l-1.711.57.19,1.711.95.95-.57.95a27.685,27.685,0,0,0,.57,7.223,65.109,65.109,0,0,1,.76,7.413,111.84,111.84,0,0,1-1.33,14.826,111.548,111.548,0,0,0-1.331,15.016c.19,4.942-1.521,12.164-4.941,22.238-3.422,9.884-5.132,16.726-4.943,20.527q1.426,3.421,2.851,3.421a.7.7,0,0,0,.57-.19l.76.38,1.9-.76.57.19c1.9-.571,2.851-.951,2.851-.951a8.751,8.751,0,0,1,3.421,1.141s1.52-.189,4.752-.76l3.611.76a22.373,22.373,0,0,0,3.8-.76,20.073,20.073,0,0,1,3.611-.95l1.141-.57c5.892-.19,9.314.38,9.693,1.521.57,2.851,1.141,5.7,1.711,8.743a40.153,40.153,0,0,0,4.751,1.9c2.851.95,4.372,1.52,4.562,1.52a10.834,10.834,0,0,0,5.321-1.71l3.041,1.331,1.331-.57,2.091.76c2.091,0,3.421-1.52,3.8-4.561h0Zm-3.8,11.214-.57.19c-4.181-.95-6.272-1.521-6.652-1.33l-5.132,2.09-.38-.189a40.181,40.181,0,0,0-3.991,2.091l-.57,1.521.191,2.091.95-.19a6.4,6.4,0,0,0,3.231.95H650c7.033,0,10.644-1.52,10.644-4.752-.38-.76-1.71-1.711-4.371-2.471h0Zm3.231,13.115a4.006,4.006,0,0,0-2.091-.95,2.159,2.159,0,0,0-1.521.57l-1.33-.19-2.851.95q-2.281-.284-13.115,1.14a15.124,15.124,0,0,0-.571,2.851,6.416,6.416,0,0,1,1.141,2.281,23,23,0,0,1,3.612.19l3.8-1.14,2.85.57a14.74,14.74,0,0,0,2.852-.38,14.641,14.641,0,0,1,2.851-.38c3.8,0,5.512-1.331,5.512-3.611h0c.189-.76-.191-1.331-1.14-1.9Zm-46-24.519c-.57,0-1.33.19-1.9.19a9.285,9.285,0,0,1-2.281.189,8.864,8.864,0,0,1-3.231-.57l-1.52.38-3.8-.38c-2.09,0-3.041.95-3.041,2.471s2.471,2.471,7.413,3.041l.76-.189,4.751,1.14,4.182-.189c2.091,0,3.04-.95,3.04-2.661h0c-1.14-2.281-2.66-3.422-4.371-3.422h0Zm-1.71,11.214-2.471.95-.57-.19-.95.38-.76-.19c-.76.38-1.9.38-3.8,0a23.8,23.8,0,0,0-4.181-.38c-2.091,0-3.042,1.14-3.042,3.421,0,1.9,1.141,2.851,3.231,2.851l2.472-.95c1.14.57,3.231.76,6.462.38l.76.57c5.132-.19,7.6-1.521,7.6-3.991-.38-2.091-1.9-2.851-4.752-2.851h0ZM609.7,320.444h-.76l-3.231-.57-4.181.76-4.182.189q-2.281.286-2.281,2.851c0,2.091,1.9,3.041,5.322,3.041,5.132-.19,8.363,0,9.693.38l3.232-.95h.95l3.041-2.47h0c-.95-2.281-3.231-3.231-7.6-3.231h0Zm16.156-46.567h-.95A41.9,41.9,0,0,0,627,263.043c.19-3.611.57-7.223.76-10.834l.57.38c.76,8.363,1.52,14.635,2.091,18.817Z" transform="translate(10.339 259.695)"/><path class="b" d="M476.845,205.714,487.869,188.8l9.884-3.421,12.925-8.743s16.156-5.512,16.916-5.892,15.776-2.281,15.776-2.281l19.387,2.281,12.354,2.281,9.314,4.752,9.883,5.892,12.355,9.884,7.033,8.173,7.033,9.884,3.421,11.024.57,12.355,1.141,14.065-2.281,15.776-2.281,8.743-4.181,7.033-9.313,6.462-6.462,6.462-15.776,12.355-9.884,5.892,2.281,4.752,4.751,4.182s6.653,4.942,7.033,5.892,11.024,21.1,11.024,21.1v31.552l-26.229,25.089-20.528,14.635-34.4-.571s-24.139-10.264-26.99-14.065c-2.66-3.611-17.486-45.047-17.486-45.047l4.182-13.495,4.752-7.032,7.032-5.892,5.322-6.463,4.182-4.181,7.033-4.182,4.181-4.182-.571-3.421-7.032-5.892-8.743-3.422-12.355-12.354-4.752-8.173-9.884-10.454-3.421-8.743-1.71-9.313,1.71-11.024,4.182-19.957Z" transform="translate(26.114 28.689)"/><path d="M632.457,354.215c0,5.892,3.611,15.205,3.611,20.908,0,18.246,3.422,31.361,3.422,49.038-3.422,2.091-15.776,1.9-21.668,1.711-3.421,2.281-14.065-.38-17.486,0-10.074.951-21.1,1.14-34.593,1.14-11.4,0-24.329.57-34.022,1.14H507.771c-7.6,1.9-19.577-.95-28.13,1.14-5.892,1.331-8.363,1.331-15.206.571-1.9-2.851-2.471-5.132-2.281-10.454,1.521-2.091.76-5.322,1.711-8.173,3.421-9.5-.57-18.057,1.141-31.551.95-7.6-3.8-15.966.57-23.949,3.041-5.512,11.4-9.313,16.916-12.164,1.521-.76,2.851-.19,4.182-1.14v-1.14c2.091-1.711,4.751-1.9,7.032-3.421,1.521-1.141,3.231-4.562,4.752-5.892.95-.76,2.471-.38,3.421-1.14,3.041-2.281,5.322-6.653,8.173-9.314,2.091-2.091,6.652-3.231,8.173-5.892-.76-.76-.76-.95-1.14-2.281-3.041-.57-3.611-2.471-5.892-3.421l-5.322-1.14c-3.612-1.9-9.694-6.272-12.355-9.313-2.281-2.661-2.471-6.273-4.751-9.313-1.141-1.711-3.611-3.421-4.752-5.322v-1.711c-2.091-2.851-6.463-4.372-8.173-7.6-1.52-2.661-.76-6.082-2.281-8.743-.19-.189-1.521-.76-1.711-1.14-2.661-7.223-.38-16.156,1.141-22.238,1.521-5.892.57-9.313,2.281-15.206a121.338,121.338,0,0,1,7.6-17.486c.38-1.711.76-3.421,1.141-5.322l3.421-2.851c1.14-1.9.95-4.181,2.281-5.892,1.52-1.71,7.223-7.223,9.313-8.173,2.661-1.14,4.751-.76,7.033-2.281,7.222-5.132,14.255-10.454,23.379-14.065a86.256,86.256,0,0,1,8.173-2.851c3.991-1.14,7.793.76,10.453-1.14,25.28-.19,41.625,5.7,56.071,15.966,1.9,1.33,4.181.95,5.892,2.281,1.331,1.14,2.091,3.611,3.421,4.752,1.141.76,2.471.38,3.421,1.14,4.752,4.181,12.925,15.015,15.205,21.1l1.14,8.173c.76,1.33,2.471,2.661,2.851,4.752v5.892c2.851,11.595,1.711,24.329-1.33,36.3-.76,3.421.76,7.223-.571,9.884-4.182,7.983-12.355,12.735-19.387,18.057-.76.57,0,1.521-.57,2.281a71.88,71.88,0,0,1-9.313,9.313c-2.471,1.521-4.942,1.9-7.6,3.421l-1.711,2.281c-2.09,1.141-6.272.38-7.6,2.281.571,1.14.191.76,0,2.281,4.752.95,5.513,5.7,8.743,8.173,6.273,4.752,15.586,5.7,22.239,9.884,3.8,1.331,14.445,13.875,13.5,17.866Zm-1.521-91.233c.189-4.372,1.521-7.223,2.281-10.454,2.091-8.173-.95-18.057-2.281-23.378-1.14-4.752,0-8.743-1.711-12.925-5.512-12.545-26.42-30.031-39.154-35.733-3.8-1.711-7.6-.95-11.784-2.281-6.272-2.281-23.759-6.652-33.833-4.182A109.684,109.684,0,0,0,510.432,189.8c-.76.57-7.413,5.322-7.6,5.892-1.9,3.041-.38,3.991-4.181,5.322V197.6c1.14-1.14,1.71-1.14,0-2.281v.57h-.571c0,1.141.571.19,0,1.141-12.165,13.685-20.337,38.584-22.428,62.533a5.061,5.061,0,0,0,2.281.57,4.072,4.072,0,0,1,2.851-1.711v1.141c-1.9,1.9-3.041,5.322-3.612,8.743,3.231,2.471,4.561,7.793,7.6,10.454,1.9,1.711,5.512,1.9,7.032,4.182,3.041,4.562,3.231,10.834,7.033,14.635,3.421,3.421,8.363,3.611,12.924,5.892,7.223,3.611,13.875,9.124,22.809,11.214,0-2.281-.19-2.661,1.14-3.421,3.041,3.421,12.165,8.743,21.1,5.892,6.653-2.281,9.5-8.553,18.817-9.313v1.141c-1.9,1.711-3.8,3.041-4.751,5.892h3.421c8.173-4.942,21.668-5.892,29.841-13.3,3.421-3.231,8.173-14.445,11.784-15.206.95.95,1.14.95,2.851,1.14,2.661-3.611,8.173-5.7,8.744-11.024,2.661-4.181-1.521-9.694-1.711-14.065h1.14a20.07,20.07,0,0,0,3.992.57ZM544.454,182.2v2.281c-5.322.38-8.173,2.281-14.065,2.281v-1.14c1.141-.95.76-1.14,2.281-1.711C535.141,181.821,540.083,182.011,544.454,182.2Zm31.742,8.173c4.942.19,11.594,2.091,12.924,5.892H587.98C584.179,193.8,577.336,195.126,576.2,190.375Zm-59.872,22.048c1.521.76.38-.19,1.14,1.141h-.57c-1.521,3.611-6.653,7.223-9.313,9.884-6.272,6.272-14.826,20.527-23.949,22.808v-2.281c8.363-7.983,14.255-18.627,22.808-26.23,2.851-2.471,6.843-3.041,9.884-5.322Zm-32.692,42.006c.189-1.14.189-1.14.57-1.711,2.281-5.132,8.933-8.933,12.925-12.925,10.074-10.074,23.759-30.982,45.046-26.8v2.281h-1.14c-1.9,1.14-5.892.38-8.173,1.14a53.115,53.115,0,0,0-12.925,7.033c-3.041,2.091-5.131,5.512-7.6,8.173-3.8,3.611-7.983,6.842-11.784,10.454-.571.57-.571,1.9-1.141,2.281-1.71,1.521-4.182,1.9-5.892,3.421C490.285,251.007,489.334,254.048,483.632,254.428Zm78.309-41.815c18.246-.19,27.94,9.123,36.873,18.247,4.181,4.181,8.933,5.892,8.743,14.635h-1.14c-8.363-8.933-17.106-19.957-29.271-25.089-4.752-2.091-11.784-2.281-16.346-3.611a7.635,7.635,0,0,1-.57-2.851,18.5,18.5,0,0,0,1.71-1.33ZM611.168,230.1c3.231,1.14,6.082,6.082,7.033,9.313h-1.141a6.411,6.411,0,0,0-2.281-1.14,81.39,81.39,0,0,1-3.611-8.173Zm-59.682,7.032h22.238c16.536,4.182,22.048,11.595,32.122,21.668,3.041,3.041,10.074,5.892,11.594,9.883.95,1.33.95,5.7,0,7.032-2.281,6.653-8.174,5.132-14.636,7.6-2.661.95-5.512,3.041-8.173,4.752-1.52.95-3.231,3.041-4.751,3.992-7.033,4.562-18.437,9.123-26.99,11.594-9.693,3.041-36.874-2.471-42.2-7.033v-1.711l-2.281.571a39.211,39.211,0,0,1-9.313-4.752c-8.743-5.7-16.156-12.735-23.378-19.957v-3.421c2.471-2.281,4.371-4.942,7.6-6.462,2.661-1.33,5.7-.76,8.173-2.281.76-.57,0-1.711.57-2.281.95-.95,2.281-.38,3.422-1.14,5.7-3.421,12.164-9.123,18.817-11.594,3.231-1.14,6.082-.76,9.314-1.71s7.222-2.661,10.453-3.421c3.231-.95,5.512,0,7.413-1.331Zm5.892,8.173v1.711c2.851,1.711,7.413,5.132,8.173,8.743,1.33,5.892-13.115,18.817-21.1,13.495-3.611-1.141-4.751-4.181-7.033-6.462-.19-5.892.951-7.6,3.612-10.454,2.661.76,3.042,2.091,6.463,2.281a7.191,7.191,0,0,1,1.71-2.281c-.38-1.9-.759-3.991-1.14-5.892a3.1,3.1,0,0,1-1.141-.57l-9.313,1.141c-4.942,7.223-7.413,6.653-6.462,19.2,3.042,2.091,5.513,6.082,8.744,7.6,9.883,4.752,27.56-1.9,30.981-8.743,2.281-4.371,1.711-10.834,1.141-16.346-3.611-2.661-3.041-4.752-9.884-4.752a9.307,9.307,0,0,1-4.751,1.33Zm22.048,2.281c.38,17.677-3.231,25.66-14.635,30.981-20.907,9.884-45.047-3.992-40.295-25.279h-2.281c-2.091,1.521-4.752,1.521-7.033,2.851l-1.71,2.281-10.454,5.322c.38,2.091-.38,6.843.571,9.313.38,1.14,2.281,2.471,2.851,3.421,4.752,7.413,3.8,5.892,11.594,9.883,6.082,3.231,12.735,7.033,20.528,8.743h10.453c16.536,0,25.47-3.041,35.163-9.314,7.222-4.752,15.206-8.743,15.206-20.338,0-1.9.189-4.181-.57-5.322-2.091-5.7-11.594-11.975-19.387-12.545ZM602.805,266.4a41.469,41.469,0,0,1-1.141,9.313h2.281c1.52-1.14,4.942-1.33,7.033-1.711a8.965,8.965,0,0,0,1.14-2.851C607.177,270.584,607.367,267.163,602.805,266.4Zm-104.157,7.983v-5.892a3.087,3.087,0,0,1-1.141-.57,3.082,3.082,0,0,0-1.141.57c-2.471.571-2.851,1.141-3.611,3.422,3.421.57,3.041,1.9,5.892,2.471Zm81.92,43.336c-6.463,0-9.5,1.14-15.776,1.14-1.33,2.091-2.661,2.091-2.851,5.322,2.851,2.471,4.942,11.024,7.6,12.354.57.38.57.38,1.711.57,2.661-5.132,8.933-13.115,9.313-19.387Zm-39.725,3.421c-7.222,0-10.073-2.281-16.916-2.281-.76,2.091-.57,5.7-.57,8.743,2.851,2.661,3.041,8.363,7.6,9.313.95-.38,0,0,1.711,0,.38-5.512,4.562-10.644,8.173-12.925Zm43.146-.95c-.189,4.562-2.66,6.272-4.181,9.313s-.951,5.892-2.281,8.743c-1.521,3.041-4.371,6.082-5.892,8.744-1.33,2.471-1.14,4.181-2.281,7.032-.95,2.471-3.611,4.752-4.751,7.033-3.612,7.983-4.752,15.966-7.6,24.519-2.281,6.462-5.512,17.677-4.181,25.659a8.073,8.073,0,0,0,2.851,1.141c5.892-12.355,14.065-22.618,21.668-33.262,3.611-5.132,9.694-9.124,10.644-16.916-6.462-4.942-6.082-15.776,1.14-19.2,3.232-1.521,6.653.19,8.744-2.281.38-.38.76-1.33,1.141-1.711C597.674,330.266,592.162,322.093,583.989,320.192Zm-69,4.562c-5.892,6.082-13.3,11.214-14.066,22.238,3.8,3.421,8.934,4.752,13.495,7.6-1.71,4.942-7.983,10.264-8.173,16.916,1.71,1.33,2.091,3.611,3.421,5.322,1.71,1.711,4.181,2.851,5.892,4.752,2.471,2.661,3.421,6.653,5.892,9.314,2.661,3.041,6.652,5.132,9.314,8.173,1.71,1.9,2.09,4.372,3.421,6.463,2.091,3.041,4.942,5.7,7.032,8.743h1.141a3.215,3.215,0,0,1,1.141-1.14c-.76-2.471.19-6.843-.57-9.884-1.33-4.942-4.561-11.214-6.462-16.346-.57-3.421-1.141-7.033-1.711-10.454-2.471-8.743-5.132-19.767-8.743-27.56l-1.141-6.462c-1.711-3.8-5.322-8.173-7.6-11.784-.95-1.9-.38-4.752-2.281-5.892Zm25.659,40.865c0-5.7,4.752-10.834,3.611-14.065-2.47-3.611-6.272-.19-6.462-7.032,2.091-2.091,3.041-4.942,2.851-9.313-1.14.189-1.14.189-1.71.57-8.173,10.074-2.661,17.677,0,29.841Zm21.668-25.66c-.191,8.553-4.561,7.413-6.462,11.594v9.313H557v-.57c4.562-1.71,7.793-11.594,7.6-18.627C563.651,340.91,563.651,340.529,562.321,339.959Z" transform="translate(15.91 25.968)"/></g></svg>