<svg width="63" height="63" xmlns="http://www.w3.org/2000/svg">
 <style type="text/css">.st0{fill:#009F9F;}
	.st1{fill:#D33434;}
	.st2{fill:#424242;}
	.st3{fill:#424242;fill-opacity:0.8471;}</style>

 <g>
  <title>background</title>
  <rect fill="none" id="canvas_background" height="65" width="65" y="-1" x="-1"/>
 </g>
 <g>
  <title>Layer 1</title>
  <g id="svg_1">
   <path id="svg_2" d="m58,63l-53,0c-2.8,0 -5,-2.2 -5,-5l0,-53c0,-2.8 2.2,-5 5,-5l53,0c2.8,0 5,2.2 5,5l0,53c0,2.8 -2.2,5 -5,5" class="st0"/>
  </g>
  <g id="svg_3">
   <path id="svg_4" d="m54.1479,43.296079c-0.7,-1.2 -1,-3 -1,-5.6l0,-17.2c0,-0.5 0.1,-0.9 0.1,-1.2s0.1,-0.6 0.3,-1c0.3,-0.7 1.3,-1 2.8,-1c1.4,0 2.3,0.4 2.7,1c0.2,0.4 0.3,0.7 0.3,1c0.1,0.3 0.1,0.7 0.1,1.3l0,16.6c0,0.8 0.1,1.4 0.2,1.6c0.2,0.2 0.5,0.3 1,0.3s0.8,0.1 1,0.1c0.2,0 0.4,0.1 0.6,0.3c0.5,0.4 0.7,1.2 0.7,2.6c0,1.5 -0.2,2.5 -0.7,2.8c-0.7,0.4 -2.1,0.5 -4.5,0.2c-1.8,-0.2 -3,-0.8 -3.6,-1.8zm-4.6,-13.8c-1.6,-2.4 -4,-3.5 -7.3,-3.5c-2.9,0 -5.4,0.9 -7.3,2.7c-2,1.8 -2.9,4.2 -2.9,7.3c0,2.4 0.8,4.6 2.3,6.5c0.8,1 1.8,1.8 3.2,2.4c1.4,0.6 3,0.9 4.7,0.9c5.1,0 7.7,-1.1 7.7,-3.2c0,-0.5 -0.2,-1 -0.5,-1.7c-0.6,-1.1 -1.2,-1.6 -2,-1.6c-0.4,0 -0.9,0.1 -1.4,0.4l-0.4,0.1c-0.9,0.3 -2,0.5 -3.4,0.5c-0.8,0 -1.6,-0.2 -2.4,-0.7c-0.8,-0.5 -1.2,-1 -1.2,-1.7l8.6,0c0.9,0 1.7,-0.4 2.4,-1.1c0.7,-0.7 1.1,-1.8 1.1,-3.3s-0.4,-2.8 -1.2,-4zm-32,-1.5c0.4,-0.4 0.7,-0.6 1,-0.8c0.8,-0.6 1.7,-0.9 2.8,-1.1c2.4,0 4.4,1 6,2.8c1.6,1.8 2.4,4.1 2.4,6.7l0,6.3c0,0.5 -0.1,0.9 -0.1,1.2s-0.1,0.6 -0.3,0.9c-0.3,0.7 -1.3,1 -2.8,1c-1.8,0 -2.7,-0.4 -3,-1.3c-0.1,-0.4 -0.2,-1 -0.2,-1.8l0,-6.3c0,-1 -0.2,-1.7 -0.8,-2.3c-0.6,-0.5 -1.4,-0.8 -2.3,-0.8s-1.7,0.3 -2.3,0.9c-0.6,0.6 -0.9,1.4 -0.9,2.3l0,6.4c0,0.5 -0.1,0.9 -0.1,1.2s-0.1,0.6 -0.3,0.9c-0.3,0.7 -1.3,1 -2.8,1s-2.5,-0.4 -2.8,-1c-0.2,-0.4 -0.3,-0.7 -0.3,-1c-0.1,-0.2 -0.1,-0.6 -0.1,-1.2l0,-12.7c0,-0.5 0.1,-0.9 0.1,-1.2c0,-0.3 0.1,-0.6 0.3,-0.9c0.4,-0.6 1.3,-0.9 2.8,-0.9s2.4,0.3 2.7,0.9c0.3,0.4 0.4,0.9 0.4,1.5c0,-0.1 0.3,-0.4 0.6,-0.7zm22.3,4.6c-0.8,0.6 -1.2,1.3 -1.2,2l4.5,0c0.9,0 1.4,-0.4 1.4,-1.2c0,-0.5 -0.2,-1 -0.6,-1.3c-0.4,-0.3 -1,-0.5 -1.8,-0.5c-0.8,0 -1.5,0.4 -2.3,1z" class="st1"/>
  </g>
  <g id="svg_11">
   <path id="svg_12" d="m36.879833,52.686555c-0.6,0 -1.2,0.2 -2,0.6c-0.7,0.4 -1.2,0.7 -1.5,1c-0.2,0.2 -0.4,0.4 -0.5,0.6c0,-0.4 -0.1,-0.8 -0.4,-1.2c-0.4,-0.6 -1.3,-0.8 -2.7,-0.8c-1.5,0 -2.5,0.3 -2.8,1c-0.2,0.3 -0.3,0.6 -0.3,0.9c0,0.3 -0.1,0.7 -0.1,1.2l0,6.9l6.3,0l0,-1.7c0,-0.6 0.3,-1.2 0.8,-1.7c0.6,-0.5 1.2,-0.7 1.8,-0.7c0.6,0 1.2,0.1 1.6,0.3s0.8,0.3 1.2,0.3c0.9,0 1.5,-0.5 2,-1.4c0.5,-0.9 0.7,-1.8 0.7,-2.5c0,-0.8 -0.2,-1.3 -0.5,-1.7c-0.3,-0.3 -0.7,-0.6 -1.1,-0.7c-0.5,-0.1 -0.9,-0.2 -1.3,-0.3c-0.2,0 -0.6,-0.1 -1.2,-0.1m14.6,-0.2c-2.6,0 -4.9,0.9 -6.9,2.8c-2,1.9 -3,4.2 -3,7.1c0,0.2 0,0.3 0,0.5l6.4,0c0,-0.2 0,-0.3 0,-0.5c0,-1.2 0.4,-2 1.1,-2.6c0.7,-0.6 1.5,-0.9 2.4,-0.9c0.9,0 1.7,0.3 2.4,0.9c0.7,0.6 1.1,1.5 1.1,2.6c0,0.2 0,0.4 0,0.6l3.1,0c1.2,0 2.3,-0.4 3.2,-1.2c-0.1,-2.6 -1.1,-4.7 -3,-6.4c-1.9,-2 -4.2,-2.9 -6.8,-2.9m-35.4,-6.1c-1.5,0 -2.5,0.3 -2.8,0.9c-0.2,0.3 -0.3,0.6 -0.3,0.9s-0.1,0.7 -0.1,1.2l0,3.7l-1.2,-0.1c-0.6,0 -1.1,0.2 -1.4,0.5c-0.2,0.2 -0.4,0.5 -0.5,1c-0.1,0.4 -0.2,1.2 -0.2,2.1c0,1 0.2,1.7 0.5,2.1c0.3,0.4 0.8,0.6 1.3,0.6s1,0 1.5,-0.1l0,3.7l6.3,0l0,-3.7l2.3,0.1c0.6,0 1,0 1.2,-0.1c0.3,0 0.6,-0.1 1,-0.3c0.6,-0.3 1,-1.3 1,-2.8s-0.3,-2.5 -0.9,-2.8c-0.4,-0.2 -0.7,-0.3 -1,-0.3c-0.3,0 -0.7,-0.1 -1.2,-0.1s-1.3,0 -2.4,0.1l0,-3.5c0,-0.8 -0.1,-1.5 -0.2,-1.8c-0.3,-0.8 -1.2,-1.3 -2.9,-1.3" class="st1"/>
  </g>
 </g>
</svg>