<?xml version="1.0" encoding="utf-8"?>
<!-- Generator: Adobe Illustrator 19.0.0, SVG Export Plug-In . SVG Version: 6.00 Build 0)  -->
<svg version="1.1" id="Layer_1" xmlns="http://www.w3.org/2000/svg" xmlns:xlink="http://www.w3.org/1999/xlink" x="0px" y="0px"
	 viewBox="0 0 122.9 98.4" style="enable-background:new 0 0 122.9 98.4;" xml:space="preserve">
<style type="text/css">
	.st0{fill:#009F9F;}
	.st1{fill:#D33434;}
	.st2{fill:#424242;}
	.st3{fill:#424242;fill-opacity:0.8471;}
</style>
<g>
	<path class="st0" d="M58,63H5c-2.8,0-5-2.2-5-5V5c0-2.8,2.2-5,5-5h53c2.8,0,5,2.2,5,5v53C63,60.8,60.8,63,58,63"/>
</g>
<g>
	<path class="st1" d="M53.9,44c-0.7-1.2-1-3-1-5.6V21.2c0-0.5,0.1-0.9,0.1-1.2s0.1-0.6,0.3-1c0.3-0.7,1.3-1,2.8-1
		c1.4,0,2.3,0.4,2.7,1c0.2,0.4,0.3,0.7,0.3,1c0.1,0.3,0.1,0.7,0.1,1.3v16.6c0,0.8,0.1,1.4,0.2,1.6c0.2,0.2,0.5,0.3,1,0.3
		s0.8,0.1,1,0.1c0.2,0,0.4,0.1,0.6,0.3c0.5,0.4,0.7,1.2,0.7,2.6c0,1.5-0.2,2.5-0.7,2.8c-0.7,0.4-2.1,0.5-4.5,0.2
		C55.7,45.6,54.5,45,53.9,44z M49.3,30.2c-1.6-2.4-4-3.5-7.3-3.5c-2.9,0-5.4,0.9-7.3,2.7c-2,1.8-2.9,4.2-2.9,7.3
		c0,2.4,0.8,4.6,2.3,6.5c0.8,1,1.8,1.8,3.2,2.4c1.4,0.6,3,0.9,4.7,0.9c5.1,0,7.7-1.1,7.7-3.2c0-0.5-0.2-1-0.5-1.7
		c-0.6-1.1-1.2-1.6-2-1.6c-0.4,0-0.9,0.1-1.4,0.4l-0.4,0.1c-0.9,0.3-2,0.5-3.4,0.5c-0.8,0-1.6-0.2-2.4-0.7c-0.8-0.5-1.2-1-1.2-1.7
		H47c0.9,0,1.7-0.4,2.4-1.1c0.7-0.7,1.1-1.8,1.1-3.3S50.1,31.4,49.3,30.2z M17.3,28.7c0.4-0.4,0.7-0.6,1-0.8
		c0.8-0.6,1.7-0.9,2.8-1.1c2.4,0,4.4,1,6,2.8c1.6,1.8,2.4,4.1,2.4,6.7v6.3c0,0.5-0.1,0.9-0.1,1.2s-0.1,0.6-0.3,0.9
		c-0.3,0.7-1.3,1-2.8,1c-1.8,0-2.7-0.4-3-1.3c-0.1-0.4-0.2-1-0.2-1.8v-6.3c0-1-0.2-1.7-0.8-2.3c-0.6-0.5-1.4-0.8-2.3-0.8
		s-1.7,0.3-2.3,0.9c-0.6,0.6-0.9,1.4-0.9,2.3v6.4c0,0.5-0.1,0.9-0.1,1.2s-0.1,0.6-0.3,0.9c-0.3,0.7-1.3,1-2.8,1s-2.5-0.4-2.8-1
		c-0.2-0.4-0.3-0.7-0.3-1c-0.1-0.2-0.1-0.6-0.1-1.2V30c0-0.5,0.1-0.9,0.1-1.2c0-0.3,0.1-0.6,0.3-0.9c0.4-0.6,1.3-0.9,2.8-0.9
		s2.4,0.3,2.7,0.9c0.3,0.4,0.4,0.9,0.4,1.5C16.7,29.3,17,29,17.3,28.7z M39.6,33.3c-0.8,0.6-1.2,1.3-1.2,2h4.5
		c0.9,0,1.4-0.4,1.4-1.2c0-0.5-0.2-1-0.6-1.3c-0.4-0.3-1-0.5-1.8-0.5C41.1,32.3,40.4,32.7,39.6,33.3z"/>
</g>
<g>
	<path class="st2" d="M77.3,45.2c-1.6,0.7-3.5,1.1-5.8,1.1s-4.6-0.6-6.7-2.1c-0.5-0.3-0.7-0.8-0.7-1.4c0-0.6,0.5-1.5,1.4-2.8
		c0.3-0.4,0.7-0.6,1.3-0.6c0.6,0,1.4,0.3,2.4,0.9c1,0.6,1.9,0.9,2.7,0.9c1.5,0,2.2-0.3,2.2-0.9c0-0.4-0.8-0.8-2.4-1
		c-1.5-0.2-3-0.8-4.5-1.7c-0.7-0.4-1.2-1.1-1.7-2c-0.5-0.9-0.7-2-0.7-3.3c0-3.8,2.6-5.7,7.8-5.7c1.7,0,3.5,0.4,5.3,1.2
		c0.9,0.3,1.3,0.8,1.3,1.4c0,0.6-0.3,1.3-0.8,2.1c-0.5,0.9-1,1.3-1.6,1.3c-0.3,0-0.8-0.1-1.6-0.5c-0.7-0.3-1.6-0.5-2.5-0.5
		c-1.4,0-2.1,0.3-2.1,0.8c0,0.7,0.8,1.2,2.4,1.4s3.1,0.7,4.6,1.4c0.7,0.3,1.2,0.9,1.7,1.7c0.5,0.8,0.7,1.9,0.7,3.1
		c0,1.3-0.2,2.3-0.7,3.2C78.8,44.1,78.1,44.8,77.3,45.2z M81.7,36.5c0,1.9,0.5,3.6,1.5,5.2c1,1.6,2.3,2.7,3.8,3.5s3,1.2,4.6,1.2
		s3.1-0.4,4.6-1.1s2.7-1.9,3.8-3.4c1-1.5,1.5-3.3,1.5-5.3c0-2.9-1-5.3-3-7.1s-4.3-2.8-6.9-2.8s-4.9,0.9-6.9,2.8
		C82.7,31.3,81.7,33.7,81.7,36.5z M110.7,28.7c0.4-0.4,0.7-0.6,1-0.8c0.8-0.6,1.7-0.9,2.8-1c2.4,0,4.4,1,6,2.8
		c1.6,1.8,2.4,4.1,2.4,6.7v6.3c0,0.5-0.1,0.9-0.1,1.2c0,0.3-0.1,0.6-0.3,0.9c-0.3,0.7-1.3,1-2.8,1c-1.8,0-2.7-0.4-3-1.3
		c-0.1-0.4-0.2-1-0.2-1.8v-6.3c0-1-0.2-1.7-0.8-2.3c-0.6-0.5-1.4-0.8-2.3-0.8s-1.7,0.3-2.3,0.9c-0.6,0.6-0.9,1.4-0.9,2.3v6.4
		c0,0.5-0.1,0.9-0.1,1.2c0,0.3-0.1,0.6-0.3,0.9c-0.3,0.7-1.3,1-2.8,1s-2.5-0.4-2.8-1c-0.2-0.4-0.2-0.8-0.3-1s-0.1-0.6-0.1-1.2V30.1
		c0-0.5,0.1-0.9,0.1-1.2c0-0.3,0.1-0.6,0.3-0.9c0.4-0.6,1.3-0.9,2.8-0.9s2.4,0.2,2.7,0.8c0.3,0.4,0.4,0.9,0.4,1.5
		C110.1,29.3,110.4,29,110.7,28.7z M89.2,33.9c-0.7,0.6-1.1,1.4-1.1,2.6c0,1.1,0.4,2,1.1,2.7c0.7,0.6,1.5,0.9,2.3,0.9
		s1.6-0.3,2.4-0.9c0.8-0.6,1.2-1.5,1.2-2.7c0-1.1-0.4-2-1.1-2.6c-0.7-0.6-1.5-0.9-2.4-0.9S89.9,33.3,89.2,33.9z"/>
</g>
<g>
	<path class="st3" d="M74.1,79c-1,0-1.9,0.3-2.7,0.8c-0.3,0.2-0.6,0.4-1,0.8c-0.3,0.3-0.6,0.6-0.6,0.7c0-0.6-0.1-1.1-0.4-1.5
		c-0.3-0.6-1.2-0.8-2.7-0.8s-2.4,0.3-2.8,0.9c-0.2,0.3-0.3,0.6-0.3,0.9c0,0.3-0.1,0.7-0.1,1.2v12.7c0,0.6,0,1,0.1,1.2
		c0,0.3,0.1,0.6,0.3,1c0.3,0.6,1.3,1,2.8,1s2.5-0.3,2.8-1c0.2-0.3,0.3-0.6,0.3-0.9s0.1-0.7,0.1-1.2v-6.4c0-0.9,0.3-1.7,0.9-2.3
		c0.6-0.6,1.4-0.9,2.3-0.9s1.7,0.3,2.3,0.8c0.6,0.6,0.8,1.3,0.8,2.3v6.3c0,0.8,0.1,1.4,0.2,1.8c0.3,0.9,1.2,1.3,3,1.3
		c1.5,0,2.5-0.3,2.8-1c0.2-0.3,0.3-0.6,0.3-0.9c0-0.3,0.1-0.7,0.1-1.2v-6.3c0-2.6-0.8-4.9-2.4-6.7C78.5,79.9,76.5,79,74.1,79
		 M36.8,78.8c-0.6,0-1.2,0.2-2,0.6c-0.7,0.4-1.2,0.7-1.5,1c-0.2,0.2-0.4,0.4-0.5,0.6c0-0.4-0.1-0.8-0.4-1.2C32,79.2,31.1,79,29.7,79
		c-1.5,0-2.5,0.3-2.8,1c-0.2,0.3-0.3,0.6-0.3,0.9c0,0.3-0.1,0.7-0.1,1.2v12.6c0,0.5,0,0.8,0,1c0,0.7,0.3,1.2,0.6,1.5
		c0.5,0.4,1.3,0.6,2.5,0.6c1.5,0,2.4-0.3,2.8-0.9c0.2-0.4,0.3-0.7,0.3-1c0-0.3,0.1-0.7,0.1-1.2v-7.6c0-0.6,0.3-1.2,0.8-1.7
		c0.6-0.5,1.2-0.7,1.8-0.7c0.6,0,1.2,0.1,1.6,0.3s0.8,0.3,1.2,0.3c0.9,0,1.5-0.5,2-1.4s0.7-1.8,0.7-2.5c0-0.8-0.2-1.3-0.5-1.7
		c-0.3-0.3-0.7-0.6-1.1-0.7c-0.5-0.1-0.9-0.2-1.3-0.3C37.8,78.9,37.4,78.8,36.8,78.8 M51.3,92c-0.8,0-1.6-0.3-2.3-0.9
		c-0.8-0.6-1.2-1.5-1.2-2.6c0-1.2,0.4-2,1.1-2.6c0.7-0.6,1.5-0.9,2.4-0.9c0.9,0,1.7,0.3,2.4,0.9s1.1,1.5,1.1,2.6
		c0,1.2-0.4,2.1-1.2,2.7C52.9,91.7,52.1,92,51.3,92 M51.4,78.6c-2.6,0-4.9,0.9-6.9,2.8s-3,4.2-3,7.1c0,1.9,0.5,3.6,1.5,5.2
		c1,1.5,2.3,2.7,3.8,3.5c1.5,0.8,3,1.2,4.6,1.2c1.6,0,3.1-0.4,4.6-1.1c1.5-0.7,2.7-1.9,3.8-3.4c1-1.5,1.5-3.3,1.5-5.3
		c0-2.9-1-5.3-3-7.1C56.3,79.5,54,78.6,51.4,78.6 M16,72.5c-1.5,0-2.5,0.3-2.8,0.9c-0.2,0.3-0.3,0.6-0.3,0.9c0,0.3-0.1,0.7-0.1,1.2
		v3.7l-1.2-0.1c-0.6,0-1.1,0.2-1.4,0.5c-0.2,0.2-0.4,0.5-0.5,1c-0.1,0.4-0.2,1.2-0.2,2.1c0,1,0.2,1.7,0.5,2.1
		c0.3,0.4,0.8,0.6,1.3,0.6s1,0,1.5-0.1v5.3c0,2.7,0.6,4.6,1.9,5.7c1.3,1.1,3.2,1.7,5.7,1.7c0.5,0,0.9,0,1.2-0.1c0.3,0,0.6-0.1,1-0.3
		c0.7-0.3,1-1.3,1-2.8c0-1.3-0.3-2.1-0.8-2.4c-0.3-0.2-0.7-0.3-1-0.3c-0.3,0-0.7-0.1-1.3-0.1s-0.9-0.1-1.2-0.4
		c-0.2-0.3-0.3-0.8-0.3-1.4v-5l2.3,0.1c0.6,0,1,0,1.2-0.1c0.3,0,0.6-0.1,1-0.3c0.6-0.3,1-1.3,1-2.8s-0.3-2.5-0.9-2.8
		c-0.4-0.2-0.7-0.3-1-0.3c-0.3,0-0.7-0.1-1.2-0.1s-1.3,0-2.4,0.1v-3.5c0-0.8-0.1-1.5-0.2-1.8C18.6,73,17.7,72.5,16,72.5"/>
</g>
<g>
	<path class="st2" d="M19.1,63h-6.3v1.6c0,2.7,0.6,4.6,1.9,5.7c1.3,1.1,3.2,1.7,5.7,1.7c0.5,0,0.9,0,1.2-0.1c0.3,0,0.6-0.1,1-0.3
		c0.7-0.3,1-1.3,1-2.8c0-1.3-0.3-2.1-0.8-2.4c-0.3-0.2-0.7-0.3-1-0.3c-0.3,0-0.7-0.1-1.3-0.1s-0.9-0.1-1.2-0.4
		c-0.2-0.3-0.3-0.8-0.3-1.4V63 M32.9,63h-6.3v5.8c0,0.5,0,0.8,0,1c0,0.7,0.3,1.2,0.6,1.5c0.5,0.4,1.3,0.6,2.5,0.6
		c1.5,0,2.4-0.3,2.8-0.9c0.2-0.4,0.3-0.7,0.3-1s0.1-0.7,0.1-1.2V63 M61.2,61.8c-0.9,0.7-2,1.2-3.2,1.2h-3.2
		c-0.1,0.9-0.5,1.6-1.2,2.1C52.8,65.7,52,66,51.2,66s-1.6-0.3-2.3-0.9c-0.6-0.5-1-1.2-1.1-2.1h-6.4c0.1,1.7,0.6,3.3,1.5,4.7
		c1,1.5,2.3,2.7,3.8,3.5c1.5,0.8,3,1.2,4.6,1.2c1.6,0,3.1-0.4,4.6-1.1c1.5-0.7,2.7-1.9,3.8-3.4c1-1.5,1.5-3.3,1.5-5.3
		C61.2,62.3,61.2,62,61.2,61.8 M74.1,53c-1,0-1.9,0.3-2.7,0.8c-0.3,0.2-0.6,0.4-1,0.8c-0.3,0.3-0.6,0.6-0.6,0.7
		c0-0.6-0.1-1.1-0.4-1.5c-0.3-0.6-1.2-0.8-2.7-0.8s-2.4,0.3-2.8,0.9c-0.2,0.3-0.3,0.6-0.3,0.9s-0.1,0.7-0.1,1.2v12.7
		c0,0.6,0,1,0.1,1.2c0,0.3,0.1,0.6,0.3,1c0.3,0.6,1.3,1,2.8,1s2.5-0.3,2.8-1c0.2-0.3,0.3-0.6,0.3-0.9s0.1-0.7,0.1-1.2v-6.4
		c0-0.9,0.3-1.7,0.9-2.3c0.6-0.6,1.4-0.9,2.3-0.9s1.7,0.3,2.3,0.8c0.6,0.6,0.8,1.3,0.8,2.3v6.3c0,0.8,0.1,1.4,0.2,1.8
		c0.3,0.9,1.2,1.3,3,1.3c1.5,0,2.5-0.3,2.8-1c0.2-0.3,0.3-0.6,0.3-0.9c0-0.3,0.1-0.7,0.1-1.2v-6.3c0-2.6-0.8-4.9-2.4-6.7
		C78.5,53.9,76.5,53,74.1,53"/>
</g>
<g>
	<path class="st1" d="M36.8,52.8c-0.6,0-1.2,0.2-2,0.6c-0.7,0.4-1.2,0.7-1.5,1c-0.2,0.2-0.4,0.4-0.5,0.6c0-0.4-0.1-0.8-0.4-1.2
		C32,53.2,31.1,53,29.7,53c-1.5,0-2.5,0.3-2.8,1c-0.2,0.3-0.3,0.6-0.3,0.9c0,0.3-0.1,0.7-0.1,1.2V63h6.3v-1.7c0-0.6,0.3-1.2,0.8-1.7
		c0.6-0.5,1.2-0.7,1.8-0.7c0.6,0,1.2,0.1,1.6,0.3s0.8,0.3,1.2,0.3c0.9,0,1.5-0.5,2-1.4c0.5-0.9,0.7-1.8,0.7-2.5
		c0-0.8-0.2-1.3-0.5-1.7c-0.3-0.3-0.7-0.6-1.1-0.7c-0.5-0.1-0.9-0.2-1.3-0.3C37.8,52.9,37.4,52.8,36.8,52.8 M51.4,52.6
		c-2.6,0-4.9,0.9-6.9,2.8c-2,1.9-3,4.2-3,7.1c0,0.2,0,0.3,0,0.5h6.4c0-0.2,0-0.3,0-0.5c0-1.2,0.4-2,1.1-2.6c0.7-0.6,1.5-0.9,2.4-0.9
		c0.9,0,1.7,0.3,2.4,0.9c0.7,0.6,1.1,1.5,1.1,2.6c0,0.2,0,0.4,0,0.6H58c1.2,0,2.3-0.4,3.2-1.2c-0.1-2.6-1.1-4.7-3-6.4
		C56.3,53.5,54,52.6,51.4,52.6 M16,46.5c-1.5,0-2.5,0.3-2.8,0.9c-0.2,0.3-0.3,0.6-0.3,0.9s-0.1,0.7-0.1,1.2v3.7l-1.2-0.1
		c-0.6,0-1.1,0.2-1.4,0.5c-0.2,0.2-0.4,0.5-0.5,1c-0.1,0.4-0.2,1.2-0.2,2.1c0,1,0.2,1.7,0.5,2.1c0.3,0.4,0.8,0.6,1.3,0.6
		s1,0,1.5-0.1V63h6.3v-3.7l2.3,0.1c0.6,0,1,0,1.2-0.1c0.3,0,0.6-0.1,1-0.3c0.6-0.3,1-1.3,1-2.8s-0.3-2.5-0.9-2.8
		c-0.4-0.2-0.7-0.3-1-0.3c-0.3,0-0.7-0.1-1.2-0.1s-1.3,0-2.4,0.1v-3.5c0-0.8-0.1-1.5-0.2-1.8C18.6,47,17.7,46.5,16,46.5"/>
</g>
</svg>
