<?xml version="1.0" encoding="UTF-8"?>
<svg enable-background="new 0 0 320.9 398.8" version="1.1" viewBox="0 0 320.9 398.8" xml:space="preserve" xmlns="http://www.w3.org/2000/svg">
	<path d="m120.7 176.7c0.8-0.7 1.5-1.5 2.3-2.2l-0.1 0.1h17v-36c-13.8 0-27.2 0-40.7-0.1-1.6 0-3.2-0.9-4.7-1.4 1.3-0.5 2.5-1.4 3.8-1.4 12.6-0.1 25.2-0.1 37.8-0.1h3.9v-36.1h-46.3l0.1 0.1c2.1-8.4 3.8-17 6.3-25.3 2.7-9 7.9-16.6 14.7-23.2 2-2 3.6-4.9 4.3-7.7 2.2-8.1 5.8-15 13.1-19.8 2.3-1.5 3.8-4.3 6.1-6.1 2.9-2.3 6-4.3 9.2-6 2.9-1.5 5.9-1 8.9 0.7 5.6 3.1 7.8 2.8 11.6-2.1 5.3-6.9 12.9-9.4 20.5-8.6 5.1 0.5 9.4-0.4 14.3-1.5 0.6 4.5 3.5 4.3 6.9 3.7 5.9-1 11.9-1.9 17.8-2.1 10.3-0.4 19.7 1.7 26.7 10.3 4.4 5.4 9.6 10 16 13.3 5 2.6 9.7 6.1 14.4 9.3 1 0.7 1.6 1.9 2.3 2.9 1.3 2 2.3 4.4 4 5.9 7.7 6.5 10.1 15.5 11.8 24.8 1 5.4 3.5 9.2 8.7 11 7.8 2.8 8.7 9.9 9.4 16.4 0.4 4-2.9 7.1-6.5 8.9-3.6 1.7-5.2 4.1-5.8 7.9-0.4 2.1-2.5 3.9-4 5.8-0.4 0.6-1.2 0.9-1.7 1.4-0.9 1.2-0.5 12.2 0.1 13.6 1.4 3.3 2.6 6.7 3.6 10.1 0.2 0.8-0.7 2.1-1.3 2.9-2.6 3.4-5.3 6.6-8 9.9-1.6 1.9-1.8 3.6 0.1 5.6 4.9 5.1 5.5 8.9 2.2 15.1-1.2 2.4-2.7 4.6-4.4 7.5-0.2-2.4-0.3-4.1-0.5-6.7 2.2-1.9 3.9-5.4 3.4-9.6-0.1-0.9-2.1-1.5-4.1-2.7 0.3 1.7 0.3 2.3 0.5 2.8 0.4 1.4 1.6 3.6 1.1 4.1-1.3 1.2-3.4 2.5-5 2.3-3.1-0.4-3 0.5-3.4 3.2-0.8 4.9 1.4 9 1.8 13.4 0.3 3.1-0.3 6.2-0.2 9.4 0 1 0.6 2.6 1.3 3 3.1 1.5 2.5 4.8 3.6 7.3 0.4 1-0.7 3.5-1.8 4.1-5.4 3-5.5 3.1-2.2 7.3-0.2 1.6-0.6 2.7-0.3 3.5 1.9 4.9 1.1 6.9-3.7 9.6-1.1 0.6-2 1.9-2.6 3-2.3 4.5-5 8.4-11.1 7.8-0.7-0.1-1.7 1.1-2.2 2-4.5 7.1-8.5 14.6-13.5 21.4-5.5 7.5-12.6 13.6-16.6 22.3-3.5 7.6-8.4 14.4-12.4 21.8-1.1 2-1.1 4.7-1.3 7.1-0.1 2.1 0.2 4.2 0.4 6.3 0.1 0.9 0.4 2 1 2.6 3.1 3.3 6.3 6.5 9.5 9.8 0.4 0.5 0.8 1.3 0.7 1.9-1 5.8-1.8 11.7-3.5 17.3-0.8 2.7-2.3 5.3-2.8 8.2-0.4 2.3-2.2 3.2-4.8 2.5-6.3-1.9-12.6-3.8-19-5.1-3.6-0.7-7.5-0.4-11.2-0.2s-6.9 4.1-7.1 8c-0.1 1.5 0.3 3.1-0.2 4.5-0.4 1.1-1.6 2.7-2.6 2.8-3.7 0.5-5.7 2.7-8 5.5-3.9 4.8-7.1 10.7-14.2 12-1.1 0.2-2 1.4-3 2.1h-123.8c-0.2-0.7-0.4-1.4-0.4-2.2-0.1-6.6-0.1-13.2-0.5-19.8-0.1-1.1-1.7-2.1-2.7-3.2-1 1-2.2 1.9-3 3-0.5 0.8-0.3 1.9-0.6 3.7-0.9-1.9-1.4-2.9-1.9-3.9-0.3 0.1-0.5 0.1-0.8 0.2 0.6 7.4 1.1 14.7 1.7 22.1h-5.3c-0.1-1.7-0.2-3.4-0.2-5.2 0.1-3.5-1-6.1-5-6.4-6.3-0.4-12.5-0.8-18.8-1.2v-4.5c5.1-2.5 10.2-2.8 15.5-0.6 0.9 0.4 2 0.8 2.9 0.6 1.4-0.4 2.6-1.3 4-1.9-1-0.9-1.9-2.2-3.1-2.6-6.5-2.5-12.9-1.8-19.2 0.8v-12c3.6-3.6 7.3-7.1 10.9-10.7 3.2-3.2 5.4-7.6 10.4-8.8 0.2-0.1 0.6-0.3 0.6-0.4 0.8-5.1 5.4-3.7 8.4-5.3 6.6-3.5 13.4-5.8 20.7-7.5 5.7-1.4 10.8-5.5 16.3-7.9 2.6-1.2 5.6-1.3 8.3-2.1 7.1-1.9 14.1-3.9 21.2-5.9 0.4-0.1 0.8-0.2 1-0.4 13-11 28.9-16.4 44.5-22.1 7.7-2.8 8.1-2.9 7.8-11.1-0.3-9-0.8-18-1-27-0.1-3.6-1.4-5-5.2-5-6.7 0-7.7-0.9-11.8-9.3v10.4h-68.2v-35.6h63.2c-2.2-1.2-3.5-2-4.8-2.7 0.3 0 0.6-0.1 0.9-0.1h16.8v-36.5h-17.6c-0.4-0.4-1-0.7-1.6-1zm0.1 51.8c-1.1 0-2.2 0.1-3.3 0-2-0.2-4-0.1-4 2.5-0.1 3.9-0.2 7.7 0.1 11.6 0.1 0.9 1.8 2.4 2.5 2.3 1.1-0.1 2.6-1.3 2.9-2.4 0.5-1.6-0.1-3.5 0.3-5.2 0.3-1.2 1.5-2.2 2.3-3.3 1 1.1 2.4 2 2.8 3.2 0.5 1.7 0 3.8 0.5 5.5 0.2 0.9 1.5 2 2.4 2.1s2.1-0.8 2.9-1.6c0.6-0.5 0.7-1.5 1.1-2.3v-24c-0.5 0-1.3-0.3-1.7 0-2.8 2.6-5.6 5.2-8.2 8.1-0.5 0.9-0.4 2.4-0.6 3.5zm98.5-78.3c1.1 2.9 3.2 7.6 7.5 12.1 4.8 5.1 9.7 7.6 11.3 8 7.9 2 16.1 3.2 24.4 1 8-1.3 14.3-4.9 16.2-12.6-0.7-1.5-1.3-3.1-2.3-5.3-2.7 3.9-5.3 7.3-7.4 10.9s-4.5 6.2-8.9 6.3h-5.6c-0.2-0.4-0.3-0.9-0.5-1.3 1.4-1.3 2.7-2.5 4.1-3.8 1.6-1.5 3.5-2.8 4.8-4.5 3.1-4.2 5.9-8.7 8.8-13 3.1-4.7 2.7-15.1-1.1-20.2-3.3 3.2-5.9 6.7-6.4 11.3-0.2 2.4-1 3.5-3.3 4.1-2.9 0.7-6.2 0.8-7.5 4.5-0.2 0.6-1.7 0.9-2.5 1.3-2 1-3.9 2-6.3 3.1-8.4-0.1-17.7 0.8-26.1-6.1 0.6 2.4 1.3 4.7 1.9 7.1-1.3-2.6-2.6-5.8-3.7-9.3-1.2-3.9-2-7.4-2.4-10.5-2.6 3.5-3.9 7-1.9 10.6 1.7 3 4.2 8.4 5.9 8 0.3 0 0.8-0.4 1-1.7zm19.6 121.5c0.6 0.5 1.3 1.1 1.9 1.6 0.8-1.4 1.4-2.9 2.3-4.2 0.5-0.8 1.4-1.7 2.2-1.9 7.4-1.9 11.8-6.8 14.2-13.7 1.2-3.4 0.9-8.3 3.1-10 4.5-3.3 3.5-8 5.3-11.9 0.3-0.7 0.4-1.6 0.9-2 0.8-0.7 1.9-1 2.8-1.5 10.2-19.2 9-40.3 8.8-61.2-3.5 2-6.5 4-9.7 5.5-4.4 2.1-9 3.8-13.7 5.7-1.7-2.4-13.9-4.6-19.4-2.5 2.9 1.7 5.5 4.5 8 4.5 5.5 0 7.3 4 9.7 7.2 1.3 1.9 1.8 4.6 2 7s-1.3 3.4-3.9 3c-4.4-0.8-8.9-1.1-13.3-1.9-2.8-0.5-5.6-1.4-8.2-2.4-0.8-0.3-1.2-2-1.4-3.1-0.5-2.7 0-5.8-1.1-8.2-5.7-11.6-11.7-23.1-17.8-34.5-1-1.9-2.6-3.7-4.2-5.1-3-2.6-6.6-2.8-10.2-1.1-3.5 1.7-3.9 4.8-3.8 8.2 0.2 7 0.2 14 0.1 21-0.1 5.7 0.2 11.2 3.1 16.4 0.4 0.7 0.3 2.1-0.2 2.6-2.8 2.9-0.5 3.9 1.7 4.8 2 0.9 4.5 0.9 6.3 2.1 2.6 1.7 4.2 1.3 5.9-1.1 2.3-3.4 5.5-5.7 9.6-5.9 2-0.1 5 0.7 5.7 2.1 0.8 1.6 0.3 4.7-0.8 6.3-1.5 2.1-4.1 3.5-6.4 4.9-2 1.3-3.5 2.5-3.4 5.2 0.3 5-1.3 6.3-6.2 5.3-3.4-0.7-5.9 0.4-8.5 4.5 4.8 0.3 8.7 0.6 12.5 0.6 2.8 0 5.7-0.9 8.5-0.8 4.6 0.1 9.2 0.8 13.8 1.2 3.3 0.3 5.9-0.2 6.7-4.2 0.6-2.9 2.3-3.2 4.6-1.3 0.8 0.6 1.5 1.4 2.3 1.9 4.5 3.1 5.3 5.3 3.8 10.8-2.7 0-5.2 0.1-7.8 0-0.8 0-2-0.2-2.4-0.8-2-2.9-4.5-2.3-7.3-1.6-2.9 0.7-6 0.7-8.9 1.5-8 2-16 4.3-24.2 6.5 2.2 3.6 8.2 5.8 11.2 4.3 3.1-1.5 5.7-2.2 8.2 0.8 0.3 0.4 1.1 0.5 1.7 0.7 6.5 2.1 6.5 2.1 5.5 8.7-0.1 0.7-0.1 1.6-0.4 2.2-0.4 0.8-1 1.7-1.8 2.1-7.7 3.4-15.6 6.6-23.3 10.1-1.4 0.6-2.5 1.8-3.9 2.9 3.7 2.4 6.9 4.8 11 1.3 0.4 1.6 0.6 2.8 0.7 3.2 3.8 0.2 7.1 0.4 10.3 0.5 0.7 4.9 1.9 5.8 5.8 4.6 3.2-1 6.4-2 9.8-3.1 0.6-1.2 1.5-2.9 2.4-4.6 0.4 0.2 0.8 0.3 1.1 0.5-0.4 2.1-0.8 4.2-1.3 6.3zm31.2-158.4c-3.6-8.3-6.4-16.1-16.3-18 1.5-1.3 2.3-2 3.2-2.8-1.2-1.4-2.3-2.6-2.7-3.1 0-1.7 0.4-3-0.1-3.7-0.9-1.2-2.2-2.1-3.4-3.1-0.2 0.3-0.5 0.6-0.7 0.9 0.5 1 0.9 2 1.4 3-1.2-0.3-1.9-0.9-2.3-1.7-2.1-3.8-4.6-7.5-6-11.6-2-5.9-6.1-7.4-11.5-7.4-2.5 0-5 0.2-7.4 0.6-3.8 0.7-7.5 1.7-11.5 2.6-0.8-3.3-1.5-6.4-2.2-9-1.3-0.7-2.5-1.4-3.7-2.1-8.1 9.6-16.3 19.2-24.3 28.9-3 3.7-5.6 7.6-8.1 11.7s-1 7.7 3.5 9.1c4.9 1.4 10 2.6 14.9 4.2 2.8 0.9 5.5 2.4 8.4 3.1 1.9 0.5 4.2 1 5.8 0.3 5.5-2.4 11.2-3.1 17.2-2.9 4 0.1 7.9-0.4 11.9-0.5 8.6-0.2 17.2-1.1 25.7 1.2 2.2 0.5 4.9 0.2 8.2 0.3zm-158.9 123.6c0-5.1-3.8-9.1-8.8-9.1-4.9 0-8.7 3.9-8.7 8.8 0 5.1 3.8 9 8.9 9.1 4.7 0 8.5-3.9 8.6-8.8zm-36.5 8.3c0.3-0.3 1.9-0.9 2.1-1.8 0.2-1-1-2.2-1.6-3.2-0.7-1.2-1.9-2.3-2.2-3.7-0.5-2.2 1.4-2.3 3-2.8 0.8-0.2 1.7-1.5 1.8-2.3 0-0.9-0.9-2.5-1.5-2.5-2.7-0.3-3.6-1.5-3.7-4.1 0-0.7-1.6-1.8-2.5-2-0.8-0.1-2 0.8-2.5 1.6-1.1 1.6-2.1 3.4-2.7 5.2-0.4 1.1-0.4 3.1 0.1 3.4 3 1.7 2.3 4.4 2.5 6.9 0.3 3.5 2.4 5.3 7.2 5.3zm4.9-8.5c0 1.1-0.1 2.2 0 3.4 0.1 2.2-0.7 5.2 3 5.2 3.4 0 2.7-2.9 2.8-5v-2.6c-0.1-2.6 0.8-4.1 3.7-3.8 2.4 0.2 3.9-1.2 3.4-3.2-0.3-1.1-2.7-1.8-4.2-2.2-1.1-0.3-2.4 0.6-3.5 0.4-4.7-0.6-5.1-0.2-5.2 4.6v3.2zm195.9 5.6c3.4 0.2 5.5-1.1 6.1-4.7 0.2-1.3 0-3.2-0.8-4-0.7-0.7-3-0.8-3.7-0.1-1.1 1.1-1.7 2.9-2.1 4.5-0.3 1.1 0.2 2.5 0.5 4.3z"/>
	<path d="m120.7 176.7l1.8 0.9c-0.5 1-1.7 2.1-1.5 2.8 0.7 2.6 1.8 5 2.8 7.5-2 1.3-3.8 2.2-6.4 1.1-2.2-0.9-3.9 0.3-4 2.9-0.1 3.6-0.3 7.2 0.1 10.7 0.1 1.2 1.8 2.2 2.7 3.3 1.3 1.3 2.6 2.6 3.8 3.9s2.2 2.8 3.3 4.2c-0.3 0-0.6 0.1-0.9 0.1-1.5-0.1-3-0.3-4.4-0.4h-49.4-4.6v-36h4.4c16 0 31.9 0 47.9-0.1 1.5 0.2 2.9-0.5 4.4-0.9zm-18.4 11.9c-5.1 0.1-8.7 3.7-8.7 8.8 0 5.2 3.8 8.9 9.1 8.7 5.1-0.1 8.5-3.8 8.5-8.9-0.1-5.1-3.8-8.6-8.9-8.6zm-27.6 17.4c0.4-0.3 1.9-1 2-2 0.2-1-1-2.1-1.6-3.2-0.7-1.2-2-2.4-2.1-3.7 0-0.9 1.8-1.7 2.7-2.6 0.8-0.8 2-1.8 2-2.7s-1.1-2.6-1.9-2.7c-2.4-0.3-2.8-1.7-3.2-3.7-0.2-1-2.1-2.1-3.4-2.2-1.5-0.1-5.2 8.7-4.5 10.1 0.1 0.1 0.1 0.3 0.2 0.3 3.1 1.4 2.3 4.3 2.6 6.8 0.3 3.6 2.6 5.6 7.2 5.6zm4.9-8.5c0.1 2-0.2 4 0.2 5.9 0.2 1 1.8 2.4 2.6 2.3 1.1-0.1 2.6-1.4 2.9-2.4 0.5-1.9 0.2-3.9 0.2-5.9 0.1-2.1 1-3.1 3.3-3.1 1.2 0 2.6-0.5 3.3-1.3 0.5-0.6 0.5-2.6 0-2.9-1.1-0.7-2.7-0.9-4.1-1.1-1-0.1-2.2 0.6-3.2 0.4-4.5-0.8-5.2-0.3-5.3 4.4 0.1 1.2 0.1 2.4 0.1 3.7z"/>
	<path d="m123 174.5h-59v-36h18.5c2.4 0 4.7 0.1 7.1-0.1 0.7-0.1 1.4-0.9 2-1.4 0.6 0 1.3 0 1.9 0.1l0.3-0.1c0.4 2.5 0.7 5 1.2 8.1 1.8-1.3 2.8-2.1 4.2-3.1 1.7 2.4 3.4 4.7 5.1 7-1.2 0.3-2.4 0.6-3.6 0.8-4.6 0.9-7.4 4.7-7.1 9.5 0.3 4.5 3.9 7.7 8.5 7.9 5.5 0.2 7.8-3.5 9.8-7.8 0.4 0.3 0.9 0.6 1.3 0.9 0 0.7-0.1 1.5 0.1 2.2 0.5 1.4 1 3.9 1.7 4 1.6 0.1 3.2-1 4.8-1.5 1.1 3.1 2.1 6.3 3.2 9.5zm-48.3-7.5c0.4-0.3 2-1.1 2-1.9 0.1-1.1-1.2-2.2-1.8-3.3-0.7-1.2-1.8-2.3-1.8-3.5 0-0.9 1.5-1.7 2.3-2.6s2.3-1.8 2.4-2.7c0-0.9-1.2-2.6-2.2-2.8-2-0.4-2.7-1.3-2.7-3.3-0.1-2.5-2.6-3.8-3.7-2.5-2.1 2.7-3.1 6.4-4.5 9.7-0.1 0.2 0.2 0.8 0.5 0.9 2.9 1.3 2.1 3.9 2.3 6.2 0.2 3.7 2.5 5.8 7.2 5.8zm4.9-8.7c0 1.9-0.3 3.8 0.2 5.6 0.3 1.2 1.9 2 2.9 3 0.9-1 2.4-2 2.7-3.2 0.5-1.6 0.1-3.5 0.2-5.2 0.1-2.3 1.1-3.6 3.5-3.1 2.6 0.5 3.6-0.9 3.6-3 0-2.6-2.1-2.8-4.1-2.6-1.1 0.1-2.2 0.8-3.2 0.7-5.7-0.5-5.7-0.5-5.8 5.2v2.6z"/>
	<path d="m93.6 137.1c-0.6 0-1.3 0-1.9-0.1-1.3-0.5-2.6-1.4-3.8-1.4-7.8-0.1-15.7-0.1-23.8-0.1v-35.9h29.8l-0.1-0.1c-0.3 3.5-0.5 7-0.8 10.5-3.1 0.3-6.2 0.7-9.3 0.7-2.1 0-3.9 0.1-3.9 2.7-0.1 3.9-0.2 7.7 0.1 11.6 0.1 0.9 1.8 2.5 2.5 2.4 1.1-0.1 2.2-1.4 3-2.4 0.4-0.6 0.1-1.7 0.1-2.6 0.1-6.2 0.1-6.2 6-6.4 0.7 7 1.4 14.1 2.1 21.1zm-18.9-9.7c0.3-0.3 1.9-0.9 2.1-1.8 0.2-1-1-2.2-1.6-3.2-0.7-1.2-1.9-2.4-2.2-3.7-0.5-2.2 1.4-2.3 3-2.8 0.8-0.2 1.7-1.5 1.8-2.3 0-0.9-0.9-2.5-1.5-2.5-2.7-0.3-3.6-1.5-3.7-4.1 0-0.7-1.6-1.8-2.5-2-0.8-0.1-2 0.8-2.5 1.6-1.1 1.6-2.1 3.4-2.7 5.2-0.4 1.1-0.4 3.1 0.1 3.4 3 1.7 2.3 4.4 2.5 6.9 0.3 3.6 2.4 5.4 7.2 5.3z"/>
	<path d="m283 368.9c0.1-11.7 5.2-22.1 8.7-32.9 0.3 0.1 0.6 0.1 0.9 0.2-2.8 11-5.6 21.9-8.4 32.9-0.4 0-0.8-0.1-1.2-0.2z"/>
	<path d="m281.8 291.6c9.1 1.4 14.2 4 14.2 9.2-4.5-2.9-9.4-6-14.2-9.2z"/>
	<path d="m113.2 160.2c1-3.2-0.2-4.6 0.3-7.5 0.2-1.1 1.6-2.6 2.6-2.8 2.4-0.4 4.9-0.3 7.4-0.1 3.4 0.2 5.8 2.3 6.4 5.4s0.5 6.4 0.4 9.7c0 0.7-1.8 2-2.6 1.8-1-0.2-2.4-1.3-2.6-2.3-0.5-1.8 0.1-3.8-0.4-5.6-0.4-1.2-1.8-2.1-2.8-3.2-0.9 1.1-2.4 2.1-2.6 3.3-0.3 1.9 0.3 3.9 0.5 5.9-0.8 2.3-3.2 3.6-5.2 3-1.8-0.5-3-2.3-3.1-3.9 0-1.4 1.1-1.6 1.7-3.7z"/>
	<path d="m93.6 119c0-5 4-9 9-8.9 4.9 0.1 8.7 4 8.7 8.9 0 5-3.8 8.8-8.6 8.9-5 0.1-9.1-3.9-9.1-8.9zm9 4.3c1.4-2 3-3.5 2.7-4.4-0.3-1.2-2.1-2.6-3.3-2.8-0.8-0.1-2.6 1.9-2.6 3 0 1.2 1.7 2.3 3.2 4.2z"/>
	<path d="m113.4 118.9v-3c0-5.6 0-5.5 5.6-4.6 0.6 0.1 1.4-0.3 2.1-0.4 3.8-1 7.4 0.3 8.5 4.1 0.9 3.4 0.8 7.1 0.8 10.7 0 0.6-1.8 1.7-2.8 1.6-0.9-0.1-2.2-1.2-2.4-2.1-0.4-1.9 0-4-0.5-5.9-0.3-1.2-1.7-2.1-2.5-3.1-1 1.1-2.4 2-2.8 3.2-0.5 1.6 0.2 3.5-0.3 5.2-0.3 1.1-1.9 2.8-2.6 2.6-1.2-0.3-2.6-1.6-2.9-2.8-0.6-1.6-0.2-3.6-0.2-5.5z"/>
<path d="m-75.1 225.3"/>
<path d="m7.6 154.9"/>
</svg>
